<svg xmlns="http://www.w3.org/2000/svg"
shape-rendering="geometricPrecision"
width="680" height="260" viewBox="280 400 680 260">
  <metadata>null</metadata>

<path d="
M 282.179 427.822
C 283.826 427.339 285.778 428.022 287.454 428.305
C 290.157 428.762 292.999 428.818 295.734 428.802
C 295.046 424.045 295.166 418.574 295.61 413.807
C 295.633 413.547 295.454 412.897 295.681 413.027
C 296.142 413.291 296.074 414.017 296.33 414.482
C 297.214 416.083 297.915 417.767 298.985 419.265
C 301.732 423.114 304.8 426.559 308.449 429.588
C 315.549 435.479 323.685 439.716 332.326 442.886
C 336.076 444.262 340.334 444.818 343.949 446.449
C 342.894 447.112 341.183 446.839 339.993 446.896
C 336.485 447.065 333.018 447.259 329.499 447.264
C 311.749 447.29 294.172 441.117 282.179 427.822 Z"
opacity="1" fill="rgb(41,50,60)" fill-rule="evenodd" />
<path d="
M 298.281 453.867
C 317.018 453.836 335.763 453.719 354.504 453.746
C 359.672 453.754 364.84 453.751 370.007 453.771
C 371.6 453.778 374.552 453.218 375.934 453.957
C 376.037 466.213 376.368 478.61 375.827 490.856
C 372.447 490.581 368.9 490.872 365.502 490.879
C 358.669 490.891 351.835 490.885 345.001 490.868
C 329.534 490.831 313.898 490.223 298.451 490.915
C 297.928 490.24 298.214 488.85 298.218 488.006
C 298.228 485.84 298.19 483.673 298.184 481.506
C 298.166 475.339 298.158 469.172 298.177 463.005
C 298.186 459.988 297.908 456.865 298.281 453.867 Z"
opacity="1" fill="rgb(42,51,61)" fill-rule="evenodd" />
<path d="
M 316.498 500.6
C 316.523 500.391 316.548 500.183 316.573 499.974
C 318.006 499.112 319.866 499.439 321.504 499.419
C 325.003 499.377 328.502 499.37 332.002 499.366
C 342.002 499.354 352.002 499.365 362.002 499.372
C 365.17 499.374 368.338 499.376 371.505 499.385
C 372.905 499.39 374.554 499.129 375.903 499.518
C 375.998 530.585 375.914 561.663 375.964 592.735
C 375.991 609.479 377.134 626.559 375.874 643.264
C 362.251 643.116 348.619 643.204 334.995 643.221
C 330.828 643.226 326.661 643.222 322.494 643.24
C 320.643 643.249 318.378 643.621 316.59 643.189
C 317.068 610.487 316.448 577.692 316.416 544.968
C 316.406 535.144 316.415 525.321 316.429 515.498
C 316.435 510.588 316.007 505.485 316.498 500.6 Z"
opacity="1" fill="rgb(44,52,61)" fill-rule="evenodd" />
<path d="
M 326.458 415.597
C 326.945 413.051 327.685 410.731 329.041 408.498
C 335.169 398.406 348.216 397.19 357.53 403.67
C 365.139 408.962 368.273 417.351 371.974 425.391
C 372.101 425.539 372.776 422.525 372.886 422.012
C 373.405 419.581 374.282 417.261 375.115 414.925
C 377.448 408.381 382.447 401.67 388.942 398.841
C 398.488 394.683 410.385 398.367 414.746 408.16
C 416.221 411.471 416.574 415.38 416.135 418.954
C 415.218 426.406 409.436 433.012 403.782 437.491
C 398.09 441.998 390.389 446.162 383.233 447.66
C 371.785 450.056 358.895 447.837 348.162 443.651
C 336.29 439.02 324.635 429.832 326.458 415.597 Z
M 336.391 417.083
C 334.381 428.404 347.059 434.653 355.721 438.035
C 357.491 438.725 359.251 439.436 361.01 440.154
C 363.384 441.123 365.831 441.96 368.26 442.77
C 368.365 441.922 367.787 440.626 367.558 439.798
C 366.999 437.779 366.462 435.756 365.78 433.774
C 363.162 426.169 360.472 417.405 353.891 412.201
C 347.622 407.243 338.8 409.34 336.391 417.083 Z
M 377.489 442.102
C 377.378 442.72 377.43 442.382 377.345 443.117
C 377.435 443.549 380.373 441.521 380.933 441.187
C 383.321 439.763 385.821 438.53 388.236 437.153
C 395.237 433.158 405.997 426.586 406.393 417.501
C 406.462 415.901 406.34 414.237 405.823 412.711
C 402.916 404.137 392.551 406.008 387.487 411.209
C 379.786 419.118 378.686 431.742 377.489 442.102 Z"
opacity="1" fill="rgb(58,98,157)" fill-rule="evenodd" />
<path d="
M 383.265 490.664
C 389.428 482.077 397.242 474.298 404.379 466.508
C 407.017 463.629 409.535 460.626 412.121 457.7
C 413.09 456.602 413.904 455.256 415.003 454.299
C 421.642 453.954 428.355 454.236 435.002 454.225
C 439.765 454.216 444.832 453.755 449.558 454.346
C 449.921 457.321 449.642 460.496 449.649 463.497
C 449.662 469.496 449.676 475.496 449.643 481.496
C 449.63 483.676 449.628 485.855 449.566 488.034
C 449.546 488.737 449.683 490.289 449.268 490.862
C 433.606 490.067 417.687 490.829 401.999 490.812
C 395.917 490.805 389.276 491.56 383.265 490.664 Z"
opacity="1" fill="rgb(157,199,168)" fill-rule="evenodd" />
<path d="
M 425.901 525.543
C 424.807 524.667 423.871 526.195 423.162 527.004
C 421.111 529.347 419.024 531.66 417.01 534.037
C 409.856 542.48 402.327 550.718 394.917 558.944
C 393.182 560.869 391.553 562.887 389.715 564.718
C 388.877 565.553 387.853 566.212 388.509 567.471
C 387.351 566.337 386.343 567.671 384.97 567.906
C 384.014 567.077 384.429 564.68 384.419 563.493
C 384.385 559.16 384.379 554.827 384.36 550.493
C 384.288 533.63 385.053 516.552 384.148 499.715
C 389.304 499.064 394.736 499.534 399.93 499.507
C 408.611 499.463 417.328 499.211 426.002 499.511
C 431.016 499.684 436.06 499.518 441.078 499.571
C 443.257 499.594 445.475 499.405 447.628 499.805
C 447.641 500.266 446.884 500.88 446.595 501.206
C 445.615 502.31 444.617 503.395 443.659 504.519
C 439.443 509.462 435.013 514.27 430.577 519.019
C 429.273 520.415 427.95 521.788 426.61 523.15
C 425.81 523.963 425.103 524.517 425.901 525.543 Z"
opacity="1" fill="rgb(159,200,169)" fill-rule="evenodd" />
<path d="
M 425.901 525.543
C 430.06 531.658 435.849 536.968 440.613 542.629
C 452.425 556.665 464.511 570.476 476.469 584.385
C 489.008 598.97 501.331 613.751 514.022 628.204
C 518.237 633.004 522.047 638.561 526.569 643.032
C 525.963 643.634 523.359 643.216 522.5 643.214
C 518.332 643.208 514.165 643.204 509.997 643.209
C 496.831 643.225 483.664 643.217 470.498 643.25
C 466.664 643.259 462.831 643.267 458.997 643.265
C 457.612 643.264 455.552 643.686 454.292 643.107
C 448.829 637.634 444.1 631.171 439.069 625.292
C 428.292 612.696 417.228 600.34 406.439 587.756
C 402.176 582.784 397.954 577.75 393.519 572.929
C 391.873 571.14 390.34 569.067 388.509 567.471
C 387.853 566.212 388.877 565.553 389.715 564.718
C 391.553 562.887 393.182 560.869 394.917 558.944
C 402.327 550.718 409.856 542.48 417.01 534.037
C 419.024 531.66 421.111 529.347 423.162 527.004
C 423.871 526.195 424.807 524.667 425.901 525.543 Z"
opacity="1" fill="rgb(43,52,62)" fill-rule="evenodd" />
<path d="
M 422.301 446.193
C 425.111 443.361 427.496 440.05 430.175 437.085
C 434.868 431.892 439.681 426.776 444.284 421.506
C 446.311 419.186 448.348 416.877 450.374 414.557
C 451.3 413.497 452.215 411.884 453.533 411.324
C 458.656 411.002 463.868 411.254 469.002 411.233
C 479.169 411.191 489.337 411.159 499.505 411.169
C 505.505 411.175 511.504 411.136 517.504 411.178
C 520.586 411.2 523.894 410.893 526.937 411.419
C 525.65 413.977 522.869 416.352 520.959 418.482
C 517.269 422.596 513.723 426.849 510.071 430.998
C 498.334 444.33 486.638 457.72 474.575 470.757
C 470.533 475.124 466.575 479.564 462.522 483.923
C 461.456 485.07 460.372 486.202 459.326 487.366
C 459.058 487.664 458.269 488.738 457.873 488.812
C 457.522 488.878 457.618 486.294 457.612 485.996
C 457.542 482.831 457.574 479.657 457.563 476.49
C 457.539 470.185 457.451 463.875 457.434 457.572
C 457.427 454.781 458.021 451.194 456.942 448.562
C 455.59 445.263 450.9 446.296 447.999 446.283
C 442.166 446.257 436.33 446.261 430.497 446.302
C 427.924 446.321 424.873 446.816 422.357 446.425
C 422.339 446.348 422.32 446.27 422.301 446.193 Z"
opacity="1" fill="rgb(159,199,170)" fill-rule="evenodd" />
<path d="
M 471.976 527.099
C 473.744 518.708 476.003 511.221 481.596 504.474
C 493.741 489.825 516.045 486.716 532.915 494.266
C 539.228 497.092 543.986 501.371 548.749 506.238
C 551.154 504.84 553.053 501.947 555.3 500.219
C 561.18 495.698 567.767 492.462 575.096 491.097
C 580.056 490.174 585.382 489.814 590.389 490.584
C 594.923 491.281 599.443 492.454 603.556 494.524
C 619.45 502.521 627.509 519.948 626.862 537.304
C 625.817 565.337 606.933 589.108 587.091 607.174
C 582.689 611.182 578.189 614.994 573.401 618.544
C 567.686 622.783 561.929 626.872 555.845 630.581
C 554.379 631.475 552.889 632.316 551.413 633.19
C 550.912 633.486 550.227 634.145 549.62 634.164
C 546.403 633.03 543.279 630.495 540.44 628.629
C 534.394 624.656 528.654 620.36 522.95 615.917
C 517.483 611.659 512.191 607.004 507.276 602.118
C 487.63 582.585 467.804 556.644 471.976 527.099 Z
M 481.968 532.121
C 481.034 543.26 484.643 554.382 489.726 564.141
C 498.327 580.653 511.816 594.024 525.863 605.941
C 531.102 610.385 536.67 614.419 542.34 618.29
C 544.399 619.696 547.454 622.373 549.934 622.772
C 551.871 621.898 553.749 620.248 555.546 619.08
C 561.424 615.257 566.876 610.976 572.388 606.659
C 576.153 603.71 579.569 600.453 583.125 597.271
C 600.298 581.907 617.472 559.539 616.734 535.268
C 616.493 527.352 614.453 519.208 609.629 512.787
C 600.873 501.132 584.774 497.762 571.46 502.683
C 565.712 504.808 560.226 508.444 556.247 513.13
C 553.471 516.4 551.482 520.159 548.958 523.584
C 547.234 521.466 546.117 518.822 544.481 516.612
C 540.647 511.434 535.784 506.85 529.975 503.983
C 516.37 497.268 497.806 500.141 488.678 512.885
C 484.379 518.888 483.24 525.078 481.968 532.121 Z"
opacity="1" fill="rgb(38,47,57)" fill-rule="evenodd" />
<path d="
M 481.968 532.121
C 483.24 525.078 484.379 518.888 488.678 512.885
C 497.806 500.141 516.37 497.268 529.975 503.983
C 535.784 506.85 540.647 511.434 544.481 516.612
C 546.117 518.822 547.234 521.466 548.958 523.584
C 551.482 520.159 553.471 516.4 556.247 513.13
C 560.226 508.444 565.712 504.808 571.46 502.683
C 584.774 497.762 600.873 501.132 609.629 512.787
C 614.453 519.208 616.493 527.352 616.734 535.268
C 617.472 559.539 600.298 581.907 583.125 597.271
C 579.569 600.453 576.153 603.71 572.388 606.659
C 566.876 610.976 561.424 615.257 555.546 619.08
C 553.749 620.248 551.871 621.898 549.934 622.772
C 547.454 622.373 544.399 619.696 542.34 618.29
C 536.67 614.419 531.102 610.385 525.863 605.941
C 511.816 594.024 498.327 580.653 489.726 564.141
C 484.643 554.382 481.034 543.26 481.968 532.121 Z
M 594.475 569.188
C 595.653 569.033 596.507 567.935 597.263 567.085
C 599.222 564.882 600.637 562.161 601.933 559.534
C 607.508 548.225 608.684 533.714 600.747 523.223
C 599.144 521.105 596.695 518.552 594.023 517.892
C 590.648 517.059 587.695 519.436 588.383 523.058
C 588.627 524.342 590.468 525.355 591.443 526.053
C 592.798 527.024 593.824 528.349 594.753 529.716
C 598.264 534.887 598.66 541.837 597.378 547.794
C 596.53 551.733 594.859 555.622 592.736 559.039
C 591.69 560.723 589.232 563.483 589.234 565.483
C 588.346 566.185 588.024 567.161 587.435 568.111
C 586.426 569.739 584.578 571.63 584.569 573.606
C 586.046 574.537 587.472 575.52 589.306 575.538
C 592.363 575.569 593.909 571.696 594.475 569.188 Z"
opacity="1" fill="rgb(161,201,171)" fill-rule="evenodd" />
<path d="
M 589.234 565.483
C 589.686 566.8 591.074 568.708 592.5 569.044
C 593.158 569.111 593.817 569.11 594.475 569.188
C 593.909 571.696 592.363 575.569 589.306 575.538
C 587.472 575.52 586.046 574.537 584.569 573.606
C 584.578 571.63 586.426 569.739 587.435 568.111
C 588.024 567.161 588.346 566.185 589.234 565.483 Z"
opacity="1" fill="rgb(185,214,192)" fill-rule="evenodd" />
<path d="
M 646.759 544.883
C 651.345 544.812 656.052 544.738 660.627 544.854
C 661.575 546.018 657.423 547.369 656.78 547.852
C 655.829 550.765 656.312 554.464 656.37 557.5
C 656.401 559.109 656.151 560.964 656.47 562.527
C 657.344 562.614 658.878 560.01 659.529 559.328
C 662.13 556.606 664.693 553.832 667.242 551.06
C 668.068 550.161 669.663 548.824 669.891 547.595
C 669.091 547.022 668.375 546.33 667.836 545.506
C 668.174 544.743 670.152 545.087 671.007 545.109
C 674.132 545.191 677.386 544.49 680.485 544.819
C 680.591 545.341 680.702 545.844 680.634 546.375
C 679.289 546.764 677.83 546.846 676.559 547.481
C 672.94 549.287 669.997 553.148 667.21 555.995
C 665.42 557.824 663.283 559.56 661.81 561.651
C 662.597 563.752 665.129 565.847 666.584 567.543
C 669.874 571.378 672.914 575.525 676.597 578.998
C 678.413 580.711 680.27 581.478 682.45 582.56
C 683.083 582.874 683.08 583.323 682.938 583.943
C 673.693 586.29 668.601 578.41 663.472 572.382
C 661.651 570.243 659.881 568.078 658.14 565.875
C 657.626 565.224 656.831 563.667 656.241 564.756
C 656.722 568.324 656.386 572.108 656.424 575.708
C 656.438 577.022 656.138 578.754 656.696 579.982
C 657.505 581.76 659.316 581.647 660.522 582.748
C 660.789 584.192 658.529 583.636 657.569 583.582
C 654.958 583.436 652.395 583.433 649.792 583.634
C 649.257 583.675 647.5 584.057 647.062 583.612
C 646.795 583.341 647.02 582.851 647.029 582.47
C 648.172 581.803 649.861 581.653 650.495 580.295
C 651.568 577.999 650.777 573.829 650.769 571.334
C 650.753 566.391 650.762 561.449 650.765 556.507
C 650.766 554.076 651.041 551.463 650.683 549.054
C 650.298 546.463 646.759 547.134 646.759 544.883 Z"
opacity="1" fill="rgb(27,31,37)" fill-rule="evenodd" />
<path d="
M 695.992 544.932
C 700.349 545.024 704.729 544.713 709.077 544.865
C 709.387 546.492 706.584 547.035 705.621 548.05
C 704.402 549.857 705.155 553.872 705.162 555.998
C 705.181 561.499 705.182 567 705.206 572.501
C 705.216 574.804 704.715 577.802 705.417 580.012
C 705.996 581.835 709.8 582.219 709.732 583.72
C 706.18 583.974 702.573 583.458 699.003 583.667
C 697.673 583.745 695.904 584.324 695.593 582.783
C 696.646 581.59 698.458 581.933 699.272 580.188
C 700.308 577.967 699.614 574.4 699.618 572.002
C 699.626 566.546 699.642 561.09 699.645 555.634
C 699.647 553.393 700.139 550.286 699.244 548.185
C 698.484 546.4 696.256 546.732 695.428 545.13
C 695.616 545.064 695.804 544.998 695.992 544.932 Z"
opacity="1" fill="rgb(29,34,37)" fill-rule="evenodd" />
<path d="
M 725.468 582.501
C 726.74 582.112 728.099 581.594 729.035 580.608
C 729.716 577.91 729.303 574.773 729.309 572.005
C 729.323 566.003 729.329 560.001 729.351 553.999
C 729.363 550.803 728.963 547.254 729.686 544.14
C 731.435 544.181 731.92 545.29 733.001 546.501
C 734.603 548.295 736.289 550.018 737.917 551.788
C 744.89 559.368 752.064 566.704 758.74 574.534
C 758.981 574.308 758.751 573.255 758.721 572.965
C 758.558 571.339 758.672 569.649 758.655 568.013
C 758.606 563.337 758.618 558.663 758.494 553.993
C 758.449 552.263 758.746 550.36 758.154 548.682
C 757.385 546.505 753.833 546.756 753.813 544.766
C 756.702 544.882 759.605 544.932 762.496 544.867
C 763.755 544.839 765.258 544.49 766.448 545.007
C 766.363 546.306 764.652 546.447 763.72 547.13
C 762.526 548.005 762.319 548.979 762.259 550.394
C 761.918 558.398 762.26 566.477 762.235 574.489
C 762.228 576.772 762.221 579.064 762.287 581.347
C 762.315 582.328 762.549 583.494 762.245 584.442
C 759.412 584.059 756.959 579.894 755.086 577.898
C 750.009 572.49 744.835 567.156 739.709 561.792
C 738.005 560.009 736.37 558.14 734.642 556.386
C 734.213 555.95 733.724 555.545 733.322 555.085
C 733.164 554.905 733.111 554.415 732.893 554.511
C 732.503 554.682 732.731 555.762 732.762 556.034
C 732.925 557.48 732.846 559.038 732.861 560.497
C 732.901 564.439 733.146 568.374 733.176 572.318
C 733.193 574.628 732.853 577.276 733.41 579.534
C 733.945 581.702 735.938 581.669 737.535 582.528
C 737.951 582.752 738.251 583.167 738.043 583.599
C 734.744 584.055 731.323 583.368 727.993 583.67
C 726.739 583.783 725.346 584.19 725.06 582.764
C 725.196 582.676 725.332 582.589 725.468 582.501 Z"
opacity="1" fill="rgb(26,30,35)" fill-rule="evenodd" />
<path d="
M 783.533 544.896
C 788.734 545.171 794.201 545.199 799.415 545.006
C 801.585 544.925 804.804 544.131 806.857 544.772
C 806.796 546.631 807.863 551.893 805.653 552.425
C 804.786 551.355 804.532 549.775 803.739 548.61
C 800.753 547.347 795.997 548.014 792.815 548.272
C 792.831 552.736 792.936 557.278 792.687 561.731
C 795.406 561.751 799.412 562.524 801.971 561.5
C 802.996 561.089 804.639 558.901 805.643 559.269
C 805.827 561.089 805.371 562.885 805.404 564.713
C 805.424 565.816 805.689 567.23 805.243 568.27
C 803.73 568.592 803.343 566.063 802.869 565.018
C 801.907 564.561 800.57 564.717 799.518 564.693
C 797.369 564.645 795.006 564.403 792.883 564.743
C 792.701 567.988 792.791 571.243 792.789 574.493
C 792.788 576.064 792.474 578.001 792.931 579.517
C 793.236 580.529 794.288 581.424 795.233 581.813
C 796.183 582.203 797.526 582.144 797.413 583.384
C 793.927 583.561 790.323 583.066 786.861 583.522
C 785.472 583.705 783.635 584.069 782.929 582.724
C 784.095 581.656 785.784 581.563 786.803 580.228
C 787.693 578.117 787.24 575.021 787.243 572.766
C 787.25 567.424 787.288 562.082 787.307 556.74
C 787.315 554.388 787.913 550.932 787.039 548.72
C 786.125 546.41 783.639 546.975 782.88 544.996
C 783.098 544.963 783.315 544.929 783.533 544.896 Z"
opacity="1" fill="rgb(28,32,36)" fill-rule="evenodd" />
<path d="
M 821.942 562.61
C 822.599 555.691 826.743 549.68 832.919 546.537
C 843.592 541.103 858.586 545.823 862.711 557.42
C 863.79 560.452 864.05 563.73 863.736 566.922
C 863.517 569.144 862.85 571.32 861.858 573.315
C 854.108 588.907 828.465 587.632 822.831 571.002
C 821.933 568.351 821.678 565.389 821.942 562.61 Z
M 828.421 559.592
C 827.227 566.823 829.741 575.65 836.231 579.71
C 841.018 582.705 848.511 582.389 852.836 578.645
C 855.497 576.343 856.883 572.772 857.463 569.378
C 858.629 562.551 856.353 553.985 850.461 549.828
C 845.351 546.222 838.112 545.756 833.223 550.123
C 830.59 552.476 828.987 556.164 828.421 559.592 Z"
opacity="1" fill="rgb(25,29,34)" fill-rule="evenodd" />
<path d="
M 880.029 545.24
C 884.263 544.139 889.602 544.845 893.966 544.898
C 894.032 547.037 890.486 546.519 889.904 548.992
C 889.356 551.319 889.772 554.117 889.789 556.494
C 889.825 561.327 889.834 566.161 889.848 570.995
C 889.855 573.138 889.198 577.03 890.318 578.877
C 892.568 581.306 899.654 581.374 902.247 579.358
C 903.608 578.299 904.071 576.706 904.817 575.23
C 905.291 575.117 906.196 574.972 906.41 575.615
C 906.578 576.122 906.208 577.236 906.095 577.742
C 905.716 579.439 905.863 582.069 904.764 583.472
C 899.014 583.521 893.255 583.41 887.503 583.402
C 885.247 583.399 883.006 583.729 880.755 583.601
C 880.38 582.151 883.081 581.426 883.964 580.312
C 884.716 578.068 884.274 575.125 884.266 572.783
C 884.248 567.689 884.227 562.596 884.22 557.502
C 884.216 554.915 884.881 551.166 883.987 548.725
C 883.204 546.587 880.938 546.904 880.029 545.24 Z"
opacity="1" fill="rgb(28,32,35)" fill-rule="evenodd" />
<path d="
M 920.485 545.413
C 922.32 544.626 924.414 545.016 926.393 545.054
C 929.155 545.107 931.89 544.806 934.646 544.938
C 934.773 546.336 931.613 547.117 930.64 548.017
C 930.082 549.234 930.247 550.68 930.223 551.995
C 930.16 555.364 930.909 559.839 929.886 563.06
C 930.314 563.688 930.792 562.82 931.051 562.399
C 932.2 560.533 933.706 558.972 935.17 557.345
C 937.281 554.999 939.528 552.786 941.609 550.412
C 942.111 549.84 943.601 548.525 943.42 547.747
C 942.777 546.911 942.071 546.332 941.65 545.331
C 943.986 544.841 946.594 545.127 948.985 545.051
C 950.691 544.996 952.648 544.584 954.318 545.029
C 954.388 545.362 954.632 546.014 954.315 546.316
C 953.745 546.86 951.865 546.685 951.07 546.972
C 949.708 547.462 948.421 548.558 947.368 549.53
C 943.327 553.261 939.984 558.205 935.679 561.561
C 936.352 563.484 938.673 565.305 939.958 566.885
C 943.441 571.164 947.067 575.639 951.184 579.327
C 952.629 580.621 954.29 581.469 956 582.351
C 956.562 582.641 957.486 582.966 957.25 583.736
C 954.121 584.244 949.898 584.122 947.064 582.603
C 943.155 580.506 940.558 576.201 937.786 572.887
C 935.866 570.59 934.012 568.244 932.037 565.993
C 931.899 565.836 930.234 564.008 930.069 564.195
C 929.643 564.676 930.171 567.307 930.176 568.002
C 930.194 570.669 930.198 573.335 930.226 576.003
C 930.239 577.266 930 578.737 930.478 579.938
C 931.024 581.31 932.533 581.98 933.769 582.582
C 934.355 582.867 935.116 582.854 934.756 583.659
C 932.01 583.799 929.227 583.416 926.463 583.43
C 924.618 583.439 922.609 584.072 920.812 583.608
C 920.332 581.798 924.309 581.501 924.574 579.209
C 925.37 572.319 924.671 564.941 924.666 558.006
C 924.663 555.103 925.386 550.964 924.25 548.251
C 923.549 546.575 921.765 546.459 920.485 545.413 Z"
opacity="1" fill="rgb(28,31,33)" fill-rule="evenodd" />

</svg>