<svg xmlns="http://www.w3.org/2000/svg"
shape-rendering="geometricPrecision"
width="4000" height="4000" viewBox="0 0 532 532"><rect width="100%" height="100%" fill="#FFFFFF" />
  <metadata>null</metadata>

<path d="
M 23.854 377.966
C 23.923 377.735 23.992 377.504 24.062 377.273
C 31.062 377.069 38.162 377.407 45.17 377.372
C 45.431 377.721 45.761 378.564 45.349 378.939
C 44.995 379.262 43.463 379.313 42.968 379.419
C 41.043 379.828 39.342 380.883 38.907 382.93
C 38.512 384.786 38.72 386.879 38.704 388.768
C 38.671 392.462 38.621 396.158 38.605 399.853
C 38.597 401.666 38.895 403.643 38.494 405.425
C 40.389 404.538 42.417 401.393 43.814 399.837
C 47.585 395.638 51.482 391.548 55.321 387.413
C 56.957 385.652 59.803 383.325 60.104 380.782
C 58.932 380.085 56.798 379.16 57.128 377.671
C 58.733 377.306 60.37 377.57 62.006 377.567
C 65.334 377.563 68.667 377.674 71.995 377.573
C 73.409 377.531 76.644 376.854 76.528 378.893
C 74.446 379.375 72.182 379.726 70.272 380.724
C 65.705 383.111 62.196 387.604 58.644 391.237
C 54.55 395.425 50.211 399.517 46.464 404.014
C 54.684 412.577 61.283 422.903 70.1 430.905
C 71.842 432.486 73.789 434.046 75.955 434.995
C 76.792 435.362 79.376 435.712 79.876 436.426
C 80.112 436.764 79.965 437.618 79.923 437.974
C 74.964 438.796 68.19 438.239 63.847 435.609
C 58.034 432.089 53.664 425.276 49.28 420.192
C 46.599 417.081 43.927 413.954 41.297 410.801
C 40.654 410.03 39.945 409.299 39.312 408.53
C 39.118 408.295 39.084 407.701 38.789 407.779
C 38.486 407.86 38.663 408.395 38.642 408.708
C 38.548 410.105 38.649 411.585 38.647 412.993
C 38.636 418.554 38.329 424.264 38.767 429.808
C 38.91 431.626 39.441 433.714 40.987 434.867
C 42.397 435.917 45.736 435.325 45.538 437.512
C 44.682 438.265 42.096 437.654 41.006 437.645
C 36.738 437.608 32.398 437.425 28.138 437.732
C 26.542 437.847 24.103 438.602 23.992 436.528
C 26.364 435.305 28.482 435.77 29.548 432.771
C 30.208 430.911 30.053 428.683 30.07 426.737
C 30.1 423.449 30.088 420.161 30.095 416.873
C 30.109 409.634 30.145 402.394 30.168 395.155
C 30.181 391.06 30.561 386.597 29.754 382.56
C 29.41 380.838 28.164 379.818 26.524 379.358
C 25.537 379.081 23.748 379.213 23.854 377.966 Z"
opacity="1" fill="rgb(28,31,35)" fill-rule="evenodd" />
<path d="
M 100.365 377.85
C 101.601 376.912 103.925 377.508 105.426 377.553
C 109.563 377.675 113.645 377.589 117.773 377.375
C 118.837 377.319 122.473 376.91 121.33 378.993
C 119.765 379.3 117.981 379.263 116.701 380.354
C 114.001 382.655 114.89 389.033 114.913 392.221
C 114.981 401.414 114.851 410.609 114.993 419.802
C 115.053 423.682 114.694 427.797 115.245 431.641
C 115.468 433.197 116.322 434.637 117.796 435.311
C 119.596 436.133 121.986 435.351 121.819 437.75
C 116.378 437.653 110.939 437.46 105.493 437.669
C 103.716 437.738 100.552 438.778 100.402 436.421
C 102.076 435.385 104.325 435.887 105.618 434.097
C 106.367 433.061 106.365 431.55 106.406 430.326
C 106.484 427.962 106.569 425.611 106.571 423.243
C 106.578 414.166 106.437 405.083 106.424 396.001
C 106.419 392.889 106.418 389.777 106.427 386.665
C 106.432 385.143 106.68 383.127 105.999 381.714
C 104.853 379.331 102.116 379.825 100.252 378.643
C 100.29 378.379 100.327 378.114 100.365 377.85 Z"
opacity="1" fill="rgb(29,33,36)" fill-rule="evenodd" />
<path d="
M 102.887 119.069
C 106.417 120.413 111.149 120.963 114.904 120.364
C 115.085 118.873 114.738 117.25 114.673 115.748
C 114.551 112.964 114.559 110.233 114.561 107.446
C 114.752 107.253 115.642 109.132 115.841 109.612
C 116.401 110.962 117.279 112.201 118.128 113.387
C 120.887 117.238 124.489 120.251 128.173 123.175
C 133.646 127.52 140.52 130.528 147.068 132.841
C 149.138 133.572 151.33 134.384 153.472 134.83
C 153.976 134.935 155.65 134.993 155.98 135.426
C 156.124 135.615 153.998 135.822 153.889 135.825
C 152.493 135.865 151.105 136.004 149.711 136.057
C 145.603 136.21 141.526 136.371 137.426 135.936
C 128.133 134.949 119.103 132.079 111.295 126.877
C 108.134 124.771 104.915 122.337 102.887 119.069 Z"
opacity="1" fill="rgb(40,48,55)" fill-rule="evenodd" />
<path d="
M 116.93 141.787
C 120.209 141.374 123.7 141.672 127.007 141.679
C 133.006 141.692 139.005 141.697 145.005 141.704
C 157.835 141.72 170.956 140.932 183.754 141.791
C 183.195 148.431 183.681 155.329 183.674 161.997
C 183.67 165.663 183.014 170.103 183.744 173.685
C 175.255 173.047 166.512 173.643 158 173.672
C 144.342 173.719 130.66 173.511 117.01 173.822
C 116.573 173.415 116.816 172.117 116.824 171.503
C 116.85 169.671 116.817 167.836 116.816 166.003
C 116.811 157.933 116.963 149.853 116.93 141.787 Z"
opacity="1" fill="rgb(41,50,60)" fill-rule="evenodd" />
<path d="
M 132.879 181.383
C 133.957 180.687 135.655 180.951 136.917 180.956
C 140.281 180.969 143.644 181.008 147.008 181.017
C 159.291 181.05 171.58 180.948 183.86 181.067
C 183.288 189.13 183.763 197.413 183.762 205.5
C 183.76 221.5 183.794 237.499 183.813 253.499
C 183.827 264.832 183.826 276.165 183.811 287.498
C 183.803 293.01 183.194 298.926 183.857 304.394
C 173.937 304.051 163.933 304.363 154.005 304.379
C 147.026 304.39 139.88 303.962 132.921 304.462
C 132.181 299.492 132.778 294.031 132.778 289.005
C 132.778 279.005 132.768 269.005 132.774 259.005
C 132.785 241.838 132.757 224.671 132.778 207.504
C 132.788 198.816 132.518 190.063 132.879 181.383 Z"
opacity="1" fill="rgb(43,52,62)" fill-rule="evenodd" />
<path d="
M 141.433 109.099
C 142.093 105.984 143.181 103.091 145.256 100.618
C 152.304 92.221 165.117 94.821 171.738 102.193
C 174.307 105.054 176.401 108.423 177.955 111.932
C 178.625 113.444 179.222 116.516 180.488 117.58
C 181.961 107.983 186.861 97.051 196.984 94.114
C 199.398 93.414 202.014 93.121 204.509 93.47
C 216.267 95.116 221.41 108.218 216.063 118.215
C 213.746 122.546 210.019 126.184 206.01 128.951
C 201.551 132.027 196.176 134.886 190.878 136.175
C 180.977 138.584 169.614 137.073 160.309 133.235
C 156.766 131.774 153.256 130.411 150.131 128.13
C 144.345 123.907 140.499 116.295 141.433 109.099 Z
M 149.909 110.582
C 148.171 120.912 160.749 125.761 168.198 129.004
C 170.781 130.129 174.125 131.943 176.995 131.947
C 176.784 129.331 175.667 126.659 174.855 124.186
C 172.903 118.237 170.574 111.16 165.711 106.912
C 160.171 102.073 152.268 103.24 149.909 110.582 Z
M 184.993 131.093
C 184.863 131.731 184.922 131.382 184.828 132.142
C 184.992 132.55 186.52 131.435 186.888 131.262
C 188.939 130.3 190.931 129.286 192.943 128.236
C 199.564 124.779 209.149 119.06 209.78 110.735
C 210.199 105.217 205.866 101.087 200.353 101.72
C 197.921 101.999 195.603 103.548 193.887 105.22
C 187.196 111.739 186.145 122.361 184.993 131.093 Z"
opacity="1" fill="rgb(59,103,167)" fill-rule="evenodd" />
<path d="
M 147.18 436.189
C 148.851 435.772 150.993 435.801 152.268 434.491
C 153.437 433.291 153.414 431.531 153.456 429.969
C 153.527 427.298 153.629 424.634 153.638 421.957
C 153.676 410.806 153.633 399.656 153.784 388.506
C 153.824 385.589 153.855 382.672 153.9 379.756
C 153.916 378.644 153.691 377.195 154.393 376.275
C 156.908 376.669 158.03 378.528 159.612 380.362
C 162.088 383.232 164.783 385.94 167.361 388.72
C 176.558 398.639 185.814 408.495 195.06 418.365
C 196.604 420.013 197.91 421.88 199.489 423.5
C 199.868 422.742 199.449 421.341 199.453 420.499
C 199.465 418.006 199.398 415.511 199.392 413.017
C 199.376 406.075 199.49 399.135 199.33 392.193
C 199.261 389.171 199.644 385.553 198.714 382.64
C 198.046 380.547 196.183 379.608 194.161 379.295
C 193.547 379.2 192.529 379.275 191.987 378.948
C 191.363 378.571 191.705 377.866 191.798 377.291
C 194.501 376.773 197.745 377.413 200.507 377.457
C 204.08 377.513 207.809 376.982 211.35 377.349
C 211.556 377.84 211.695 378.259 211.716 378.791
C 209.977 379.685 207.994 379.114 206.461 380.781
C 204.97 382.4 205.138 384.73 205.119 386.778
C 205.082 390.617 204.933 394.439 204.917 398.276
C 204.882 407.182 204.832 416.088 204.777 424.994
C 204.751 429.363 205.415 434.501 204.412 438.764
C 202.811 439.029 201.707 437.457 200.699 436.419
C 197.869 433.5 195.127 430.474 192.344 427.507
C 184.588 419.238 176.674 411.131 168.935 402.847
C 166.594 400.341 164.249 397.826 161.978 395.257
C 161.114 394.278 160.109 392.548 158.935 392.004
C 159.869 401.822 159.288 411.986 159.475 421.852
C 159.539 425.23 158.768 430.933 160.86 433.801
C 162.275 435.743 164.784 435.626 166.901 436.187
C 167.083 436.611 167.338 437.317 167.081 437.762
C 162.081 437.574 157.006 437.486 152.004 437.701
C 151.157 437.738 147.993 438.406 147.413 437.665
C 147.106 437.273 147.237 436.684 147.18 436.189 Z"
opacity="1" fill="rgb(28,31,35)" fill-rule="evenodd" />
<path d="
M 190.252 173.196
C 199.408 163.001 208.087 152.267 217.445 142.234
C 219.801 141.665 222.585 142.086 225.003 142.09
C 229.836 142.097 234.669 142.102 239.503 142.113
C 241.155 142.116 242.803 142.053 244.455 142.04
C 245.306 142.033 246.357 141.833 246.959 142.478
C 247.579 149.903 247.084 157.541 247.079 164.994
C 247.077 166.992 247.088 168.991 247.055 170.988
C 247.044 171.665 247.167 172.895 246.779 173.449
C 235.218 173.14 223.568 173.561 211.997 173.597
C 204.818 173.62 197.469 173.059 190.324 173.443
C 190.3 173.36 190.276 173.278 190.252 173.196 Z"
opacity="1" fill="rgb(158,201,171)" fill-rule="evenodd" />
<path d="
M 226.47 202.83
C 225.5 202.941 224.934 203.878 224.327 204.595
C 222.809 206.39 221.297 208.177 219.724 209.924
C 213.483 216.858 207.234 223.785 201.216 230.915
C 199.538 232.903 197.864 234.944 196.034 236.795
C 195.225 237.614 194.045 238.399 194.907 239.565
C 193.6 238.34 192.846 239.369 191.423 239.913
C 190.821 238.912 191.149 236.686 191.119 235.498
C 191.02 231.665 191.068 227.823 191.057 223.988
C 191.016 209.785 190.777 195.578 190.892 181.375
C 191.379 180.695 193.385 181.022 194.181 181.027
C 197.449 181.05 200.727 180.929 203.999 180.917
C 212.752 180.886 221.504 180.841 230.257 180.845
C 235.29 180.848 240.697 180.578 245.686 181.195
C 245.746 181.598 245.08 182.067 244.82 182.346
C 243.856 183.382 242.88 184.407 241.918 185.446
C 238.075 189.595 234.271 193.781 230.409 197.912
C 229.52 198.862 226.099 201.511 226.47 202.83 Z"
opacity="1" fill="rgb(159,202,170)" fill-rule="evenodd" />
<path d="
M 226.47 202.83
C 228.199 205.434 230.721 207.8 232.806 210.139
C 236.244 213.997 239.554 217.975 242.967 221.855
C 253.117 233.391 262.961 245.23 272.96 256.897
C 282.485 268.01 291.865 279.245 301.455 290.302
C 303.975 293.208 306.47 296.166 308.901 299.145
C 310.356 300.927 311.709 302.997 313.463 304.495
C 311.85 304.925 309.22 304.312 307.499 304.317
C 302.833 304.333 298.166 304.303 293.5 304.296
C 283.834 304.282 274.169 304.315 264.503 304.365
C 261.504 304.38 258.506 304.414 255.507 304.43
C 254.123 304.438 252.47 304.696 251.128 304.39
C 248.833 302.361 247.069 299.526 244.994 297.256
C 239.015 290.713 233.419 283.82 227.63 277.109
C 221.992 270.572 216.439 263.909 210.635 257.52
C 205.355 251.709 199.602 245.854 194.907 239.565
C 194.045 238.399 195.225 237.614 196.034 236.795
C 197.864 234.944 199.538 232.903 201.216 230.915
C 207.234 223.785 213.483 216.858 219.724 209.924
C 221.297 208.177 222.809 206.39 224.327 204.595
C 224.934 203.878 225.5 202.941 226.47 202.83 Z"
opacity="1" fill="rgb(43,53,62)" fill-rule="evenodd" />
<path d="
M 223.287 135.583
C 229.437 128.163 236.116 121.093 242.668 114.018
C 245.231 111.252 247.55 107.608 250.512 105.294
C 253.881 104.811 257.593 105.247 261 105.249
C 268.001 105.254 275.001 105.246 282.001 105.239
C 289.001 105.232 296.001 105.223 303 105.245
C 306.52 105.256 310.339 104.847 313.819 105.36
C 312.941 107.045 310.921 108.634 309.65 110.075
C 306.788 113.32 304.035 116.657 301.15 119.879
C 291.595 130.556 281.761 141.073 272.457 151.964
C 268.114 157.048 263.562 162.11 258.82 166.825
C 257.355 168.282 255.736 170.99 253.972 171.968
C 254.413 163.905 253.911 155.603 253.842 147.495
C 253.81 143.713 254.455 139.119 252.566 135.678
C 245.571 135.091 238.518 135.272 231.497 135.356
C 228.845 135.388 225.897 135.846 223.287 135.583 Z"
opacity="1" fill="rgb(159,202,171)" fill-rule="evenodd" />
<path d="
M 237.296 377.734
C 240.647 376.878 245.035 377.705 248.508 377.733
C 257.251 377.804 266.573 378.424 275.21 376.851
C 275.214 379.427 274.716 382.144 274.428 384.714
C 274.285 385.994 274.521 387.324 274.183 388.573
C 273.739 388.824 273.102 388.646 272.622 388.556
C 272.279 386.853 272.083 385.023 270.785 383.722
C 269.504 382.439 267.355 382.38 265.666 382.281
C 261.532 382.04 257.225 382.016 253.106 382.421
C 252.421 389.489 252.746 396.916 252.924 404.017
C 257.702 404.138 263.154 404.411 267.868 403.533
C 269.942 403.146 270.201 400.467 272.603 400.806
C 273.022 401.946 272.47 403.682 272.386 404.865
C 272.181 407.757 272.822 411.079 272.253 413.882
C 271.848 414.111 270.929 414.126 270.591 413.747
C 270.201 413.308 270.309 412.242 270.167 411.691
C 269.84 410.432 268.841 409.09 267.61 408.601
C 266.083 407.995 264.112 408.2 262.502 408.194
C 259.362 408.182 256.185 408.127 253.063 408.46
C 252.36 411.452 252.866 414.938 252.868 418.004
C 252.872 422.557 252.056 428.066 253.351 432.481
C 253.774 433.922 254.756 435.02 256.2 435.453
C 257.627 435.88 260.465 435.575 259.904 437.787
C 254.504 437.367 248.916 437.596 243.5 437.71
C 241.346 437.756 238.524 438.895 238.122 436.286
C 240.322 435.592 242.903 435.667 243.819 433.122
C 244.464 431.33 244.27 429.215 244.281 427.342
C 244.301 424.062 244.299 420.781 244.297 417.501
C 244.293 410.001 244.249 402.501 244.225 395.001
C 244.213 391.249 244.722 387.109 244.014 383.41
C 243.637 381.44 242.295 380.221 240.38 379.679
C 239.881 379.537 237.488 379.506 237.258 379.097
C 237.197 378.989 237.295 377.749 237.296 377.734 Z"
opacity="1" fill="rgb(30,34,37)" fill-rule="evenodd" />
<path d="
M 266.452 206.609
C 267.227 201.035 268.427 195.784 271.191 190.821
C 280.431 174.232 301.424 169.082 318.424 176.169
C 324.167 178.563 328.107 182.391 332.457 186.63
C 334.925 184.619 336.989 182.174 339.561 180.262
C 344.555 176.549 350.862 174.294 356.985 173.405
C 361.244 172.787 365.678 172.763 369.911 173.575
C 373.502 174.263 377.15 175.399 380.38 177.137
C 396.536 185.831 401.866 205.073 398.165 222.174
C 392.646 247.671 372.561 268.729 352.162 283.776
C 348.337 286.598 344.452 289.391 340.396 291.875
C 338.093 293.286 335.455 294.506 333.311 296.132
C 332.707 296.219 331.972 295.606 331.477 295.314
C 330.071 294.484 328.657 293.661 327.278 292.786
C 321.481 289.111 315.769 285.229 310.424 280.917
C 288.351 263.112 263.717 237.397 266.452 206.609 Z
M 275.442 207.107
C 272.953 229.202 288.296 249.37 303.415 263.728
C 306.899 267.038 310.511 270.254 314.314 273.194
C 318.628 276.528 322.9 279.854 327.468 282.848
C 329.16 283.957 331.335 286.028 333.36 286.334
C 342.263 281.242 350.506 274.57 358.141 267.769
C 371.773 255.626 384.332 241.209 389.006 223.158
C 392.007 211.565 390.778 197.927 381.674 189.226
C 379.194 186.855 375.975 185.051 372.838 183.717
C 370.053 182.532 366.944 181.979 363.934 181.799
C 360.353 181.584 356.591 182.15 353.183 183.253
C 347.338 185.145 341.994 188.617 338.135 193.436
C 336.833 195.062 335.531 196.72 334.423 198.487
C 333.907 199.31 333.459 200.897 332.598 201.39
C 330.773 199.972 329.626 196.57 328.166 194.69
C 325.286 190.982 321.547 187.648 317.432 185.37
C 306.352 179.236 291.104 180.95 282.581 190.657
C 278.344 195.482 276.86 201.046 275.442 207.107 Z"
opacity="1" fill="rgb(42,51,59)" fill-rule="evenodd" />
<path d="
M 275.442 207.107
C 276.86 201.046 278.344 195.482 282.581 190.657
C 291.104 180.95 306.352 179.236 317.432 185.37
C 321.547 187.648 325.286 190.982 328.166 194.69
C 329.626 196.57 330.773 199.972 332.598 201.39
C 333.459 200.897 333.907 199.31 334.423 198.487
C 335.531 196.72 336.833 195.062 338.135 193.436
C 341.994 188.617 347.338 185.145 353.183 183.253
C 356.591 182.15 360.353 181.584 363.934 181.799
C 366.944 181.979 370.053 182.532 372.838 183.717
C 375.975 185.051 379.194 186.855 381.674 189.226
C 390.778 197.927 392.007 211.565 389.006 223.158
C 384.332 241.209 371.773 255.626 358.141 267.769
C 350.506 274.57 342.263 281.242 333.36 286.334
C 331.335 286.028 329.16 283.957 327.468 282.848
C 322.9 279.854 318.628 276.528 314.314 273.194
C 310.511 270.254 306.899 267.038 303.415 263.728
C 288.296 249.37 272.953 229.202 275.442 207.107 Z
M 370.896 240.859
C 374.547 239.041 376.594 234.75 378.256 231.227
C 382.952 221.28 383.515 208.252 375.456 199.771
C 374.148 198.395 372.392 196.918 370.442 196.717
C 367.715 196.437 365.608 198.826 366.362 201.553
C 367.803 203.402 370.057 204.467 371.498 206.424
C 375.037 211.233 375.121 218.574 373.401 224.058
C 372.45 227.092 371.008 229.964 369.318 232.65
C 368.462 234.011 367.032 235.813 367.394 237.479
C 366.653 237.262 366.371 238.048 365.995 238.588
C 364.952 240.087 363.561 241.829 363.106 243.605
C 364.133 245.288 365.787 245.677 367.638 245.84
C 368.194 245.889 368.881 246.179 369.357 245.804
C 369.821 244.203 370.266 242.397 370.896 240.859 Z"
opacity="1" fill="rgb(161,203,171)" fill-rule="evenodd" />
<path d="
M 298.45 404.609
C 299.206 393.749 306.237 383.79 316.009 379.131
C 332.688 371.179 356.123 378.438 361.743 396.961
C 362.961 400.975 363.577 404.999 363.287 409.2
C 362.645 418.482 358.135 427.351 350.475 432.785
C 333.776 444.632 307.637 438.77 300.275 418.903
C 298.592 414.364 298.115 409.42 298.45 404.609 Z
M 307.946 401.099
C 306.393 411.959 310.307 424.681 319.62 431.107
C 327.936 436.844 340.394 436.246 347.367 428.585
C 351.013 424.58 352.832 419.228 353.587 413.948
C 355.09 403.449 351.59 390.264 342.483 383.925
C 334.36 378.27 322.358 378.778 315.199 385.825
C 311.104 389.855 308.752 395.459 307.946 401.099 Z"
opacity="1" fill="rgb(31,33,37)" fill-rule="evenodd" />
<path d="
M 367.394 237.479
C 368.121 239.098 369.955 239.522 370.896 240.859
C 370.266 242.397 369.821 244.203 369.357 245.804
C 368.881 246.179 368.194 245.889 367.638 245.84
C 365.787 245.677 364.133 245.288 363.106 243.605
C 363.561 241.829 364.952 240.087 365.995 238.588
C 366.371 238.048 366.653 237.262 367.394 237.479 Z"
opacity="1" fill="rgb(190,220,197)" fill-rule="evenodd" />
<path d="
M 388.428 377.915
C 389.877 376.993 392.333 377.556 394.01 377.606
C 397.635 377.714 401.257 377.595 404.881 377.537
C 406.494 377.511 408.383 377.102 409.935 377.617
C 410.043 378.163 410.177 378.698 410.274 379.245
C 409.403 379.204 408.525 379.333 407.681 379.541
C 402.255 380.873 403.625 387.303 403.621 391.649
C 403.613 401.266 403.665 410.882 403.675 420.498
C 403.677 422.949 403.634 425.411 403.755 427.859
C 403.811 429.008 403.871 430.437 404.624 431.378
C 405.714 432.74 407.535 433.059 409.173 433.273
C 412.895 433.759 417.023 433.62 420.651 432.649
C 423.217 431.962 424.809 430.576 425.874 428.129
C 426.282 427.19 426.365 425.678 427.199 425.051
C 427.53 425.081 428.751 424.994 428.857 425.522
C 429.03 426.392 428.493 427.602 428.374 428.471
C 427.962 431.478 427.859 435.072 426.192 437.689
C 425.423 438.029 424.33 437.801 423.5 437.786
C 421.666 437.753 419.832 437.739 417.998 437.731
C 411.162 437.701 404.333 437.506 397.497 437.584
C 395.353 437.608 393.209 437.693 391.07 437.831
C 390.695 437.855 389.448 438.113 389.222 437.629
C 389.031 437.221 389.157 436.73 389.127 436.281
C 390.911 435.681 393.442 435.677 394.389 433.748
C 395.009 432.486 394.903 430.798 394.929 429.431
C 394.982 426.697 395.064 423.97 395.062 421.225
C 395.053 411.538 394.91 401.844 394.959 392.16
C 394.972 389.726 395.022 387.289 394.944 384.856
C 394.907 383.721 394.962 382.348 394.271 381.383
C 392.99 379.593 390.684 379.174 388.646 378.887
C 388.175 378.359 388.277 378.675 388.428 377.915 Z"
opacity="1" fill="rgb(30,33,38)" fill-rule="evenodd" />
<path d="
M 451.415 377.361
C 455.977 377.747 460.644 377.857 465.223 377.729
C 467.502 377.665 469.799 377.248 472.069 377.569
C 472.175 377.836 472.532 378.512 472.38 378.853
C 472.198 379.261 470.843 379.294 470.473 379.388
C 468.669 379.844 466.677 380.269 466.277 382.427
C 464.877 389.976 466.83 397.918 465.917 405.502
C 467.707 404.582 469.263 401.65 470.704 400.155
C 474.826 395.878 478.874 391.545 482.815 387.098
C 484.329 385.388 487.165 382.959 487.305 380.528
C 486.454 379.381 483.586 379.198 484.497 377.517
C 488.904 376.657 493.88 377.858 498.387 377.505
C 499.633 377.407 502.925 376.712 503.875 377.43
C 503.924 377.714 504.17 378.607 503.992 378.892
C 503.72 379.328 501.335 379.456 500.861 379.548
C 498.697 379.967 496.873 380.866 495.159 382.253
C 490.019 386.41 485.444 391.854 480.96 396.707
C 478.819 399.025 475.724 401.269 474.117 403.98
C 475.669 405.417 476.948 407.296 478.348 408.892
C 484.229 415.599 489.793 422.915 496.258 429.071
C 498.331 431.045 500.606 433.087 503.155 434.431
C 504.681 435.236 506.953 435.554 508.189 436.75
C 508.357 437.243 508.476 437.625 508.208 438.096
C 503.108 438.353 498.006 438.628 493.202 436.492
C 489.512 434.852 487.113 431.803 484.471 428.888
C 479.161 423.032 474.146 416.869 469.046 410.826
C 468.446 410.12 466.866 407.463 466.018 407.949
C 466.334 413.408 465.888 418.888 465.893 424.35
C 465.895 426.898 465.681 429.794 466.343 432.279
C 466.662 433.477 467.401 434.697 468.588 435.21
C 470.16 435.89 473.105 435.485 472.789 437.686
C 467.392 437.988 461.917 437.53 456.5 437.69
C 454.613 437.746 451.611 438.832 451.359 436.298
C 452.801 435.849 454.651 435.878 455.802 434.79
C 458.499 432.24 457.29 425.841 457.295 422.505
C 457.309 413.67 457.32 404.835 457.355 396.001
C 457.373 391.653 457.968 386.849 457.241 382.553
C 456.918 380.641 454.824 379.577 453.094 379.31
C 452.777 379.261 451.485 379.325 451.256 379.066
C 450.851 378.608 451.09 378.058 451.165 377.549
C 451.248 377.486 451.332 377.424 451.415 377.361 Z"
opacity="1" fill="rgb(29,32,36)" fill-rule="evenodd" />

</svg>